Rokkitt Light 100-100.ufo
<glyph name="exclam" format="1">
  <advance width="150"/>
  <unicode hex="0021"/>
  <outline>
    <contour>
      <point x="74" y="321" type="line"/>
      <point x="87" y="321" type="line"/>
      <point x="104" y="730" type="line"/>
      <point x="104" y="1156" type="line"/>
      <point x="57" y="1156" type="line"/>
      <point x="57" y="730" type="line"/>
    </contour>
    <contour>
      <point x="55" y="0" type="line"/>
      <point x="105" y="0" type="line"/>
      <point x="105" y="54" type="line"/>
      <point x="55" y="54" type="line"/>
    </contour>
  </outline>
</glyph>
<glyph name="plus" format="1">
  <advance width="798"/>
  <unicode hex="002B"/>
  <outline>
    <contour>
      <point x="382" y="156" type="line"/>
      <point x="419" y="156" type="line"/>
      <point x="419" y="558" type="line"/>
      <point x="754" y="558" type="line"/>
      <point x="754" y="592" type="line"/>
      <point x="419" y="592" type="line"/>
      <point x="419" y="977" type="line"/>
      <point x="382" y="977" type="line"/>
      <point x="382" y="592" type="line"/>
      <point x="44" y="592" type="line"/>
      <point x="44" y="558" type="line"/>
      <point x="382" y="558" type="line"/>
    </contour>
  </outline>
</glyph>
<glyph name="nine" format="1">
  <advance width="1061"/>
  <unicode hex="0039"/>
  <outline>
    <contour>
      <point x="449" y="-41" type="line"/>
      <point x="844" y="668" type="line" smooth="yes"/>
      <point x="877" y="726"/>
      <point x="891" y="797"/>
      <point x="891" y="837" type="curve" smooth="yes"/>
      <point x="891" y="1034"/>
      <point x="747" y="1174"/>
      <point x="543" y="1174" type="curve" smooth="yes"/>
      <point x="329" y="1174"/>
      <point x="178" y="1034"/>
      <point x="178" y="837" type="curve" smooth="yes"/>
      <point x="178" y="643"/>
      <point x="327" y="505"/>
      <point x="538" y="505" type="curve" smooth="yes"/>
      <point x="628" y="505"/>
      <point x="726" y="547"/>
      <point x="752" y="578" type="curve"/>
      <point x="412" y="-22" type="line"/>
    </contour>
    <contour>
      <point x="538" y="541" type="curve" smooth="yes"/>
      <point x="352" y="541"/>
      <point x="220" y="664"/>
      <point x="220" y="837" type="curve" smooth="yes"/>
      <point x="220" y="1013"/>
      <point x="354" y="1138"/>
      <point x="543" y="1138" type="curve" smooth="yes"/>
      <point x="722" y="1138"/>
      <point x="849" y="1013"/>
      <point x="849" y="837" type="curve" smooth="yes"/>
      <point x="849" y="652"/>
      <point x="701" y="541"/>
    </contour>
  </outline>
</glyph>
<glyph name="equal" format="1">
  <advance width="715"/>
  <unicode hex="003D"/>
  <outline>
    <contour>
      <point x="92" y="311" type="line"/>
      <point x="653" y="311" type="line"/>
      <point x="653" y="351" type="line"/>
      <point x="92" y="351" type="line"/>
    </contour>
    <contour>
      <point x="92" y="539" type="line"/>
      <point x="653" y="539" type="line"/>
      <point x="653" y="577" type="line"/>
      <point x="92" y="577" type="line"/>
    </contour>
  </outline>
</glyph>
<glyph name="question" format="1">
  <advance width="629"/>
  <unicode hex="003F"/>
  <outline>
    <contour>
      <point x="268" y="279" type="curve"/>
      <point x="283" y="279" type="line"/>
      <point x="295" y="485"/>
      <point x="374" y="573"/>
      <point x="451" y="647" type="curve" smooth="yes"/>
      <point x="529" y="721"/>
      <point x="604" y="780"/>
      <point x="607" y="925" type="curve" smooth="yes"/>
      <point x="611" y="1095"/>
      <point x="492" y="1196"/>
      <point x="297" y="1196" type="curve" smooth="yes"/>
      <point x="179" y="1196"/>
      <point x="75" y="1142"/>
      <point x="17" y="1050" type="curve"/>
      <point x="46" y="1027" type="line"/>
      <point x="93" y="1112"/>
      <point x="186" y="1162"/>
      <point x="297" y="1162" type="curve" smooth="yes"/>
      <point x="462" y="1162"/>
      <point x="563" y="1076"/>
      <point x="563" y="929" type="curve" smooth="yes"/>
      <point x="563" y="788"/>
      <point x="489" y="731"/>
      <point x="416" y="656" type="curve" smooth="yes"/>
      <point x="342" y="581"/>
      <point x="268" y="489"/>
    </contour>
    <contour>
      <point x="254" y="-28" type="line"/>
      <point x="316" y="-28" type="line"/>
      <point x="316" y="25" type="line"/>
      <point x="254" y="25" type="line"/>
    </contour>
  </outline>
</glyph>
<glyph name="D" format="1">
  <advance width="1353"/>
  <unicode hex="0044"/>
  <outline>
    <contour>
      <point x="677" y="0" type="move" name="bot"/>
    </contour>
    <contour>
      <point x="677" y="1152" type="move" name="top"/>
    </contour>
    <contour>
      <point x="270" y="592" type="move" name="mid"/>
    </contour>
    <contour>
      <point x="279" y="0" type="line"/>
      <point x="783" y="0" type="line" smooth="yes"/>
      <point x="1099" y="0"/>
      <point x="1257" y="321"/>
      <point x="1257" y="570" type="curve" smooth="yes"/>
      <point x="1257" y="823"/>
      <point x="1107" y="1152"/>
      <point x="777" y="1152" type="curve" smooth="yes"/>
      <point x="279" y="1152" type="line"/>
      <point x="279" y="1116" type="line"/>
      <point x="779" y="1116" type="line" smooth="yes"/>
      <point x="1067" y="1116"/>
      <point x="1215" y="823"/>
      <point x="1215" y="570" type="curve" smooth="yes"/>
      <point x="1215" y="319"/>
      <point x="1067" y="36"/>
      <point x="773" y="36" type="curve" smooth="yes"/>
      <point x="279" y="36" type="line"/>
    </contour>
    <component base="uc_main_stem" xOffset="-33"/>
  </outline>
</glyph>
<glyph name="H" format="1">
  <advance width="1409"/>
  <unicode hex="0048"/>
  <outline>
    <contour>
      <point x="705" y="1152" type="move" name="top"/>
    </contour>
    <contour>
      <point x="703" y="0" type="move" name="bot"/>
    </contour>
    <contour>
      <point x="277" y="564" type="line"/>
      <point x="1131" y="564" type="line"/>
      <point x="1132" y="598" type="line"/>
      <point x="278" y="598" type="line"/>
    </contour>
    <component base="uc_main_stem" xOffset="-33"/>
    <component base="uc_main_stem" xOffset="816"/>
  </outline>
</glyph>
<glyph name="I" format="1">
  <advance width="568"/>
  <unicode hex="0049"/>
  <outline>
    <component base="uc_main_stem" xOffset="-29"/>
    <contour>
      <point x="283" y="0" type="move" name="ogonek"/>
    </contour>
    <contour>
      <point x="287" y="1152" type="move" name="top"/>
    </contour>
  </outline>
</glyph>
<glyph name="L" format="1">
  <advance width="1055"/>
  <unicode hex="004C"/>
  <outline>
    <contour>
      <point x="454" y="804" type="move" name="caron.alt"/>
    </contour>
    <contour>
      <point x="329" y="579" type="move" name="mid"/>
    </contour>
    <contour>
      <point x="528" y="1152" type="move" name="top"/>
    </contour>
    <contour>
      <point x="652" y="0" type="move" name="bot"/>
    </contour>
    <contour>
      <point x="322" y="0" type="line"/>
      <point x="1002" y="0" type="line"/>
      <point x="1002" y="358" type="line"/>
      <point x="966" y="358" type="line"/>
      <point x="966" y="34" type="line"/>
      <point x="322" y="34" type="line"/>
    </contour>
    <component base="uc_main_stem" xOffset="16"/>
  </outline>
</glyph>
<glyph name="R" format="1">
  <advance width="1180"/>
  <unicode hex="0052"/>
  <outline>
    <contour>
      <point x="590" y="1152" type="move" name="top"/>
    </contour>
    <contour>
      <point x="670" y="0" type="move" name="bot"/>
    </contour>
    <contour>
      <point x="951" y="0" type="line"/>
      <point x="1149" y="0" type="line"/>
      <point x="1149" y="34" type="line"/>
      <point x="980" y="34" type="line"/>
      <point x="662" y="539" type="line"/>
      <point x="947" y="539"/>
      <point x="1029" y="698"/>
      <point x="1029" y="845" type="curve" smooth="yes"/>
      <point x="1029" y="988"/>
      <point x="946" y="1152"/>
      <point x="710" y="1152" type="curve" smooth="yes"/>
      <point x="278" y="1152" type="line"/>
      <point x="278" y="1118" type="line"/>
      <point x="715" y="1118" type="line" smooth="yes"/>
      <point x="922" y="1118"/>
      <point x="987" y="973"/>
      <point x="987" y="845" type="curve" smooth="yes"/>
      <point x="987" y="727"/>
      <point x="929" y="573"/>
      <point x="653" y="573" type="curve" smooth="yes"/>
      <point x="370" y="573" type="line"/>
      <point x="370" y="539" type="line"/>
      <point x="612" y="539" type="line"/>
    </contour>
    <component base="uc_main_stem" xOffset="-33"/>
  </outline>
</glyph>
<glyph name="S" format="1">
  <advance width="1093"/>
  <unicode hex="0053"/>
  <outline>
    <contour>
      <point x="547" y="1152" type="move" name="top"/>
    </contour>
    <contour>
      <point x="604" y="0" type="move" name="bot"/>
    </contour>
    <contour>
      <point x="617" y="-22" type="curve" smooth="yes"/>
      <point x="961" y="-22"/>
      <point x="1006" y="197"/>
      <point x="1006" y="292" type="curve" smooth="yes"/>
      <point x="1006" y="558"/>
      <point x="805" y="578"/>
      <point x="590" y="598" type="curve" smooth="yes"/>
      <point x="386" y="617"/>
      <point x="198" y="638"/>
      <point x="198" y="856" type="curve" smooth="yes"/>
      <point x="198" y="1011"/>
      <point x="301" y="1136"/>
      <point x="553" y="1136" type="curve" smooth="yes"/>
      <point x="708" y="1136"/>
      <point x="894" y="1044"/>
      <point x="894" y="958" type="curve" smooth="yes"/>
      <point x="893" y="847" type="line"/>
      <point x="937" y="847" type="line"/>
      <point x="937" y="1152" type="line"/>
      <point x="893" y="1152" type="line"/>
      <point x="893" y="1037" type="line"/>
      <point x="844" y="1127"/>
      <point x="666" y="1172"/>
      <point x="549" y="1172" type="curve" smooth="yes"/>
      <point x="333" y="1172"/>
      <point x="156" y="1074"/>
      <point x="156" y="859" type="curve" smooth="yes"/>
      <point x="156" y="599"/>
      <point x="378" y="578"/>
      <point x="585" y="560" type="curve" smooth="yes"/>
      <point x="812" y="540"/>
      <point x="964" y="512"/>
      <point x="964" y="300" type="curve" smooth="yes"/>
      <point x="964" y="158"/>
      <point x="882" y="14"/>
      <point x="620" y="14" type="curve" smooth="yes"/>
      <point x="366" y="14"/>
      <point x="201" y="102"/>
      <point x="201" y="252" type="curve" smooth="yes"/>
      <point x="201" y="387" type="line"/>
      <point x="157" y="387" type="line"/>
      <point x="157" y="-1" type="line"/>
      <point x="201" y="-1" type="line"/>
      <point x="201" y="130" type="line"/>
      <point x="277" y="21"/>
      <point x="410" y="-22"/>
    </contour>
  </outline>
</glyph>
<glyph name="V" format="1">
  <advance width="1209"/>
  <unicode hex="0056"/>
  <outline>
    <contour>
      <point x="575" y="0" type="line"/>
      <point x="625" y="0" type="line"/>
      <point x="1056" y="1118" type="line"/>
      <point x="1177" y="1118" type="line"/>
      <point x="1177" y="1152" type="line"/>
      <point x="850" y="1152" type="line"/>
      <point x="850" y="1118" type="line"/>
      <point x="1009" y="1118" type="line"/>
      <point x="601" y="55" type="line"/>
      <point x="215" y="1118" type="line"/>
      <point x="378" y="1118" type="line"/>
      <point x="378" y="1152" type="line"/>
      <point x="32" y="1152" type="line"/>
      <point x="32" y="1118" type="line"/>
      <point x="168" y="1118" type="line"/>
    </contour>
  </outline>
</glyph>
<glyph name="W" format="1">
  <advance width="1872"/>
  <unicode hex="0057"/>
  <outline>
    <contour>
      <point x="936" y="0" type="move" name="bot"/>
    </contour>
    <contour>
      <point x="936" y="1152" type="move" name="top"/>
    </contour>
    <contour>
      <point x="559" y="0" type="line"/>
      <point x="612" y="0" type="line"/>
      <point x="936" y="1018" type="line"/>
      <point x="1276" y="0" type="line"/>
      <point x="1327" y="0" type="line"/>
      <point x="1692" y="1116" type="line"/>
      <point x="1830" y="1116" type="line"/>
      <point x="1830" y="1152" type="line"/>
      <point x="1493" y="1152" type="line"/>
      <point x="1493" y="1116" type="line"/>
      <point x="1650" y="1116" type="line"/>
      <point x="1301" y="48" type="line"/>
      <point x="951" y="1087" type="line"/>
      <point x="916" y="1087" type="line"/>
      <point x="585" y="48" type="line"/>
      <point x="222" y="1116" type="line"/>
      <point x="385" y="1116" type="line"/>
      <point x="385" y="1152" type="line"/>
      <point x="42" y="1152" type="line"/>
      <point x="42" y="1116" type="line"/>
      <point x="179" y="1116" type="line"/>
    </contour>
  </outline>
</glyph>
<glyph name="Z" format="1">
  <advance width="1140"/>
  <unicode hex="005A"/>
  <outline>
    <contour>
      <point x="570" y="0" type="move" name="bot"/>
    </contour>
    <contour>
      <point x="570" y="1152" type="move" name="top"/>
    </contour>
    <contour>
      <point x="100" y="0" type="line"/>
      <point x="1048" y="0" type="line"/>
      <point x="1048" y="359" type="line"/>
      <point x="1008" y="359" type="line"/>
      <point x="1008" y="36" type="line"/>
      <point x="150" y="36" type="line"/>
      <point x="1019" y="1117" type="line"/>
      <point x="1019" y="1152" type="line"/>
      <point x="128" y="1152" type="line"/>
      <point x="128" y="808" type="line"/>
      <point x="168" y="808" type="line"/>
      <point x="168" y="1116" type="line"/>
      <point x="966" y="1116" type="line"/>
      <point x="100" y="36" type="line"/>
    </contour>
  </outline>
</glyph>
<glyph name="grave" format="1">
  <advance width="50"/>
  <unicode hex="0060"/>
  <outline>
    <contour>
      <point x="25" y="804" type="move" name="_top"/>
    </contour>
    <contour>
      <point x="62" y="929" type="line"/>
      <point x="78" y="929" type="line"/>
      <point x="-9" y="1174" type="line"/>
      <point x="-59" y="1174" type="line"/>
    </contour>
  </outline>
</glyph>
<glyph name="i" format="1">
  <advance width="513"/>
  <unicode hex="0069"/>
  <outline>
    <contour>
      <point x="283" y="0" type="move" name="ogonek"/>
    </contour>
    <component base="dotaccent" xOffset="41"/>
    <component base="dotlessi"/>
  </outline>
</glyph>
<glyph name="w" format="1">
  <advance width="1493"/>
  <unicode hex="0077"/>
  <outline>
    <contour>
      <point x="747" y="0" type="move" name="bot"/>
    </contour>
    <contour>
      <point x="752" y="804" type="move" name="top"/>
    </contour>
    <contour>
      <point x="419" y="0" type="line"/>
      <point x="480" y="0" type="line"/>
      <point x="752" y="731" type="line"/>
      <point x="1025" y="0" type="line"/>
      <point x="1083" y="0" type="line"/>
      <point x="1349" y="769" type="line"/>
      <point x="1489" y="769" type="line"/>
      <point x="1489" y="805" type="line"/>
      <point x="1160" y="805" type="line"/>
      <point x="1160" y="769" type="line"/>
      <point x="1304" y="769" type="line"/>
      <point x="1053" y="30" type="line"/>
      <point x="774" y="769" type="line"/>
      <point x="928" y="769" type="line"/>
      <point x="928" y="805" type="line"/>
      <point x="576" y="805" type="line"/>
      <point x="576" y="769" type="line"/>
      <point x="726" y="769" type="line"/>
      <point x="451" y="28" type="line"/>
      <point x="187" y="769" type="line"/>
      <point x="349" y="769" type="line"/>
      <point x="349" y="805" type="line"/>
      <point x="4" y="805" type="line"/>
      <point x="4" y="769" type="line"/>
      <point x="141" y="769" type="line"/>
    </contour>
  </outline>
</glyph>
<glyph name="z" format="1">
  <advance width="858"/>
  <unicode hex="007A"/>
  <outline>
    <contour>
      <point x="429" y="0" type="move" name="bot"/>
    </contour>
    <contour>
      <point x="455" y="804" type="move" name="top"/>
    </contour>
    <contour>
      <point x="127" y="0" type="line"/>
      <point x="774" y="0" type="line"/>
      <point x="774" y="262" type="line"/>
      <point x="733" y="262" type="line"/>
      <point x="733" y="34" type="line"/>
      <point x="177" y="34" type="line"/>
      <point x="747" y="771" type="line"/>
      <point x="747" y="805" type="line"/>
      <point x="152" y="805" type="line"/>
      <point x="152" y="572" type="line"/>
      <point x="196" y="572" type="line"/>
      <point x="196" y="771" type="line"/>
      <point x="700" y="771" type="line"/>
      <point x="127" y="33" type="line"/>
    </contour>
  </outline>
</glyph>
<glyph name="asciitilde" format="1">
  <advance width="708"/>
  <unicode hex="007E"/>
  <outline>
    <contour>
      <point x="127" y="636" type="curve"/>
      <point x="153" y="636" type="line"/>
      <point x="153" y="692"/>
      <point x="174" y="710"/>
      <point x="209" y="710" type="curve" smooth="yes"/>
      <point x="282" y="710"/>
      <point x="400" y="643"/>
      <point x="487" y="643" type="curve" smooth="yes"/>
      <point x="540" y="643"/>
      <point x="569" y="676"/>
      <point x="569" y="747" type="curve"/>
      <point x="545" y="747" type="line"/>
      <point x="544" y="688"/>
      <point x="521" y="669"/>
      <point x="484" y="669" type="curve" smooth="yes"/>
      <point x="403" y="669"/>
      <point x="289" y="736"/>
      <point x="208" y="736" type="curve" smooth="yes"/>
      <point x="158" y="736"/>
      <point x="127" y="709"/>
    </contour>
  </outline>
</glyph>
<glyph name="threequarters" format="1">
  <advance width="1649"/>
  <unicode hex="00BE"/>
  <outline>
    <contour>
      <point x="349" y="348" type="curve" smooth="yes"/>
      <point x="521" y="348"/>
      <point x="623" y="434"/>
      <point x="623" y="580" type="curve" smooth="yes"/>
      <point x="623" y="698"/>
      <point x="552" y="774"/>
      <point x="433" y="785" type="curve"/>
      <point x="544" y="794"/>
      <point x="609" y="859"/>
      <point x="609" y="960" type="curve" smooth="yes"/>
      <point x="609" y="1095"/>
      <point x="515" y="1174"/>
      <point x="357" y="1174" type="curve" smooth="yes"/>
      <point x="242" y="1174"/>
      <point x="148" y="1123"/>
      <point x="104" y="1036" type="curve"/>
      <point x="137" y="1017" type="line"/>
      <point x="178" y="1094"/>
      <point x="260" y="1140"/>
      <point x="357" y="1140" type="curve" smooth="yes"/>
      <point x="488" y="1140"/>
      <point x="565" y="1073"/>
      <point x="565" y="960" type="curve" smooth="yes"/>
      <point x="565" y="853"/>
      <point x="487" y="800"/>
      <point x="327" y="800" type="curve" smooth="yes"/>
      <point x="266" y="800" type="line"/>
      <point x="266" y="766" type="line"/>
      <point x="327" y="766" type="line" smooth="yes"/>
      <point x="507" y="766"/>
      <point x="579" y="713"/>
      <point x="579" y="580" type="curve" smooth="yes"/>
      <point x="579" y="456"/>
      <point x="494" y="382"/>
      <point x="349" y="382" type="curve" smooth="yes"/>
      <point x="249" y="382"/>
      <point x="164" y="437"/>
      <point x="121" y="529" type="curve"/>
      <point x="88" y="509" type="line"/>
      <point x="134" y="408"/>
      <point x="231" y="348"/>
    </contour>
    <contour>
      <point x="1257" y="0" type="line"/>
      <point x="1525" y="0" type="line"/>
      <point x="1525" y="34" type="line"/>
      <point x="1413" y="34" type="line"/>
      <point x="1413" y="256" type="line"/>
      <point x="1533" y="256" type="line"/>
      <point x="1533" y="290" type="line"/>
      <point x="1413" y="290" type="line"/>
      <point x="1413" y="804" type="line"/>
      <point x="1372" y="804" type="line"/>
      <point x="1012" y="283" type="line"/>
      <point x="1021" y="256" type="line"/>
      <point x="1369" y="256" type="line"/>
      <point x="1369" y="34" type="line"/>
      <point x="1257" y="34" type="line"/>
    </contour>
    <contour>
      <point x="486" y="0" type="line"/>
      <point x="533" y="0" type="line"/>
      <point x="1289" y="1152" type="line"/>
      <point x="1243" y="1152" type="line"/>
    </contour>
    <contour>
      <point x="1062" y="290" type="line"/>
      <point x="1369" y="741" type="line"/>
      <point x="1369" y="290" type="line"/>
    </contour>
  </outline>
</glyph>
<glyph name="AE" format="1">
  <advance width="1697"/>
  <unicode hex="00C6"/>
  <outline>
    <contour>
      <point x="849" y="1152" type="move" name="top"/>
    </contour>
    <contour>
      <point x="1606" y="0" type="move" name="ogonek"/>
    </contour>
    <contour>
      <point x="36" y="0" type="line"/>
      <point x="386" y="0" type="line"/>
      <point x="388" y="34" type="line"/>
      <point x="240" y="34" type="line"/>
      <point x="442" y="488" type="line"/>
      <point x="898" y="488" type="line"/>
      <point x="1036" y="34" type="line"/>
      <point x="887" y="34" type="line"/>
      <point x="885" y="0" type="line"/>
      <point x="1609" y="0" type="line"/>
      <point x="1609" y="362" type="line"/>
      <point x="1569" y="362" type="line"/>
      <point x="1569" y="34" type="line"/>
      <point x="1077" y="34" type="line"/>
      <point x="912" y="569" type="line"/>
      <point x="1346" y="569" type="line"/>
      <point x="1346" y="390" type="line"/>
      <point x="1385" y="390" type="line"/>
      <point x="1385" y="770" type="line"/>
      <point x="1345" y="770" type="line"/>
      <point x="1345" y="603" type="line"/>
      <point x="902" y="603" type="line"/>
      <point x="743" y="1118" type="line"/>
      <point x="1551" y="1118" type="line"/>
      <point x="1551" y="796" type="line"/>
      <point x="1591" y="796" type="line"/>
      <point x="1591" y="1152" type="line"/>
      <point x="529" y="1152" type="line"/>
      <point x="527" y="1118" type="line"/>
      <point x="672" y="1118" type="line"/>
      <point x="193" y="34" type="line"/>
      <point x="38" y="34" type="line"/>
    </contour>
    <contour>
      <point x="453" y="520" type="line"/>
      <point x="704" y="1111" type="line"/>
      <point x="707" y="1111" type="line"/>
      <point x="889" y="520" type="line"/>
    </contour>
  </outline>
</glyph>
<glyph name="kgreenlandic" format="1">
  <advance width="994"/>
  <unicode hex="0138"/>
  <outline>
    <contour>
      <point x="50" y="0" type="line"/>
      <point x="508" y="0" type="line"/>
      <point x="508" y="34" type="line"/>
      <point x="293" y="34" type="line"/>
      <point x="293" y="401" type="line"/>
      <point x="767" y="34" type="line"/>
      <point x="633" y="34" type="line"/>
      <point x="633" y="0" type="line"/>
      <point x="966" y="0" type="line"/>
      <point x="966" y="34" type="line"/>
      <point x="826" y="34" type="line"/>
      <point x="336" y="415" type="line"/>
      <point x="777" y="770" type="line"/>
      <point x="927" y="770" type="line"/>
      <point x="927" y="804" type="line"/>
      <point x="595" y="804" type="line"/>
      <point x="595" y="770" type="line"/>
      <point x="721" y="770" type="line"/>
      <point x="293" y="429" type="line"/>
      <point x="293" y="804" type="line"/>
      <point x="50" y="804" type="line"/>
      <point x="50" y="770" type="line"/>
      <point x="249" y="770" type="line"/>
      <point x="249" y="34" type="line"/>
      <point x="50" y="34" type="line"/>
    </contour>
  </outline>
</glyph>
<glyph name="eng" format="1">
  <advance width="1040"/>
  <unicode hex="014B"/>
  <outline>
    <contour>
      <point x="495" y="-374" type="line"/>
      <point x="728" y="-374"/>
      <point x="866" y="-261"/>
      <point x="866" y="-17" type="curve" smooth="yes"/>
      <point x="866" y="582" type="line" smooth="yes"/>
      <point x="866" y="749"/>
      <point x="762" y="826"/>
      <point x="623" y="826" type="curve" smooth="yes"/>
      <point x="507" y="826"/>
      <point x="383" y="778"/>
      <point x="246" y="694" type="curve"/>
      <point x="246" y="656" type="line"/>
      <point x="413" y="750"/>
      <point x="509" y="790"/>
      <point x="618" y="790" type="curve" smooth="yes"/>
      <point x="747" y="790"/>
      <point x="822" y="715"/>
      <point x="822" y="605" type="curve" smooth="yes"/>
      <point x="822" y="-31" type="line" smooth="yes"/>
      <point x="822" y="-220"/>
      <point x="719" y="-340"/>
      <point x="498" y="-340" type="curve"/>
    </contour>
    <component base="lc_xheight_stem" xOffset="-43"/>
  </outline>
</glyph>
<glyph name="OE" format="1">
  <advance width="1913"/>
  <unicode hex="0152"/>
  <outline>
    <contour>
      <point x="602" y="0" type="curve" smooth="yes"/>
      <point x="1773" y="0" type="line"/>
      <point x="1773" y="362" type="line"/>
      <point x="1733" y="362" type="line"/>
      <point x="1733" y="34" type="line"/>
      <point x="1036" y="34" type="line"/>
      <point x="1036" y="569" type="line"/>
      <point x="1468" y="569" type="line"/>
      <point x="1468" y="390" type="line"/>
      <point x="1507" y="390" type="line"/>
      <point x="1507" y="770" type="line"/>
      <point x="1467" y="770" type="line"/>
      <point x="1467" y="603" type="line"/>
      <point x="1036" y="603" type="line"/>
      <point x="1036" y="1118" type="line"/>
      <point x="1705" y="1118" type="line"/>
      <point x="1705" y="796" type="line"/>
      <point x="1745" y="796" type="line"/>
      <point x="1745" y="1152" type="line"/>
      <point x="608" y="1152" type="line" smooth="yes"/>
      <point x="278" y="1152"/>
      <point x="128" y="823"/>
      <point x="128" y="570" type="curve" smooth="yes"/>
      <point x="128" y="321"/>
      <point x="286" y="0"/>
    </contour>
    <contour>
      <point x="612" y="34" type="line"/>
      <point x="318" y="34"/>
      <point x="170" y="319"/>
      <point x="170" y="570" type="curve" smooth="yes"/>
      <point x="170" y="823"/>
      <point x="318" y="1118"/>
      <point x="606" y="1118" type="curve" smooth="yes"/>
      <point x="992" y="1118" type="line"/>
      <point x="992" y="34" type="line"/>
    </contour>
  </outline>
</glyph>
<glyph name="dotlessj" format="1">
  <advance width="398"/>
  <unicode hex="0237"/>
  <outline>
    <contour>
      <point x="245" y="804" type="move" name="top"/>
    </contour>
    <contour>
      <point x="23" y="-241" type="line"/>
      <point x="98" y="-241" type="line" smooth="yes"/>
      <point x="226" y="-241"/>
      <point x="268" y="-209"/>
      <point x="268" y="-55" type="curve" smooth="yes"/>
      <point x="268" y="804" type="line"/>
      <point x="64" y="804" type="line"/>
      <point x="64" y="768" type="line"/>
      <point x="221" y="768" type="line"/>
      <point x="221" y="-40" type="line" smooth="yes"/>
      <point x="221" y="-153"/>
      <point x="228" y="-205"/>
      <point x="85" y="-205" type="curve" smooth="yes"/>
      <point x="23" y="-205" type="line"/>
    </contour>
  </outline>
</glyph>
<glyph name="dotaccent" format="1">
  <advance width="496"/>
  <unicode hex="02D9"/>
  <outline>
    <contour>
      <point x="251" y="804" type="move" name="_top"/>
    </contour>
    <contour>
      <point x="251" y="999" type="curve" smooth="yes"/>
      <point x="277" y="999"/>
      <point x="293" y="1016"/>
      <point x="293" y="1044" type="curve" smooth="yes"/>
      <point x="293" y="1072"/>
      <point x="277" y="1089"/>
      <point x="251" y="1089" type="curve" smooth="yes"/>
      <point x="227" y="1089"/>
      <point x="212" y="1072"/>
      <point x="212" y="1044" type="curve" smooth="yes"/>
      <point x="212" y="1016"/>
      <point x="227" y="999"/>
    </contour>
  </outline>
</glyph>
<glyph name="commaturnedabovecomb" format="1">
  <advance width="600"/>
  <unicode hex="0312"/>
  <outline>
    <contour>
      <point x="278" y="804" type="move" name="_top"/>
    </contour>
    <contour>
      <point x="347" y="1174" type="line"/>
      <point x="256" y="1175"/>
      <point x="245" y="1126"/>
      <point x="245" y="1012" type="curve" smooth="yes"/>
      <point x="245" y="934" type="line"/>
      <point x="308" y="934" type="line"/>
      <point x="308" y="1029" type="line"/>
      <point x="273" y="1029" type="line"/>
      <point x="273" y="1114"/>
      <point x="273" y="1155"/>
      <point x="347" y="1157" type="curve"/>
    </contour>
  </outline>
</glyph>
<glyph name="commaaccent" format="1">
  <advance width="418"/>
  <unicode hex="0326"/>
  <outline>
    <contour>
      <point x="209" y="0" type="move" name="_bot"/>
    </contour>
    <contour>
      <point x="136" y="-339" type="line"/>
      <point x="227" y="-340"/>
      <point x="238" y="-291"/>
      <point x="238" y="-177" type="curve" smooth="yes"/>
      <point x="238" y="-99" type="line"/>
      <point x="175" y="-99" type="line"/>
      <point x="175" y="-194" type="line"/>
      <point x="210" y="-194" type="line"/>
      <point x="210" y="-279"/>
      <point x="210" y="-320"/>
      <point x="136" y="-322" type="curve"/>
    </contour>
  </outline>
</glyph>
<glyph name="quotedblleft" format="1">
  <advance width="642"/>
  <unicode hex="201C"/>
  <outline>
    <contour>
      <point x="169" y="972" type="line"/>
      <point x="249" y="972" type="line"/>
      <point x="249" y="1056" type="line"/>
      <point x="208" y="1056" type="line"/>
      <point x="208" y="1134"/>
      <point x="212" y="1157"/>
      <point x="271" y="1180" type="curve"/>
      <point x="271" y="1197" type="line"/>
      <point x="192" y="1196"/>
      <point x="169" y="1131"/>
      <point x="169" y="1058" type="curve" smooth="yes"/>
    </contour>
    <contour>
      <point x="361" y="972" type="line"/>
      <point x="441" y="972" type="line"/>
      <point x="441" y="1056" type="line"/>
      <point x="398" y="1056" type="line"/>
      <point x="399" y="1133"/>
      <point x="404" y="1157"/>
      <point x="463" y="1180" type="curve"/>
      <point x="463" y="1197" type="line"/>
      <point x="383" y="1196"/>
      <point x="361" y="1131"/>
      <point x="361" y="1058" type="curve" smooth="yes"/>
    </contour>
  </outline>
</glyph>
<glyph name="bullet" format="1">
  <advance width="768"/>
  <unicode hex="2022"/>
  <outline>
    <contour>
      <point x="384" y="333" type="curve" smooth="yes"/>
      <point x="527" y="333"/>
      <point x="641" y="443"/>
      <point x="641" y="580" type="curve" smooth="yes"/>
      <point x="641" y="719"/>
      <point x="527" y="826"/>
      <point x="384" y="826" type="curve" smooth="yes"/>
      <point x="240" y="826"/>
      <point x="128" y="718"/>
      <point x="128" y="580" type="curve" smooth="yes"/>
      <point x="128" y="445"/>
      <point x="240" y="333"/>
    </contour>
  </outline>
</glyph>
<glyph name="estimated" format="1">
  <advance width="946"/>
  <unicode hex="212E"/>
  <outline>
    <contour>
      <point x="523" y="-14" type="curve" smooth="yes"/>
      <point x="669" y="-14"/>
      <point x="783" y="52"/>
      <point x="868" y="139" type="curve"/>
      <point x="840" y="171" type="line"/>
      <point x="772" y="90"/>
      <point x="661" y="30"/>
      <point x="523" y="30" type="curve" smooth="yes"/>
      <point x="331" y="30"/>
      <point x="204" y="184"/>
      <point x="197" y="393" type="curve"/>
      <point x="869" y="393" type="line"/>
      <point x="869" y="642"/>
      <point x="734" y="819"/>
      <point x="499" y="819" type="curve" smooth="yes"/>
      <point x="264" y="819"/>
      <point x="106" y="641"/>
      <point x="106" y="403" type="curve" smooth="yes"/>
      <point x="106" y="165"/>
      <point x="279" y="-14"/>
    </contour>
    <contour>
      <point x="197" y="430" type="line"/>
      <point x="205" y="634"/>
      <point x="318" y="785"/>
      <point x="499" y="785" type="curve" smooth="yes"/>
      <point x="691" y="785"/>
      <point x="790" y="622"/>
      <point x="790" y="430" type="curve"/>
    </contour>
  </outline>
</glyph>
<glyph name="partialdiff" format="1">
  <advance width="930"/>
  <unicode hex="2202"/>
  <outline>
    <contour>
      <point x="428" y="-22" type="curve" smooth="yes"/>
      <point x="681" y="-22"/>
      <point x="830" y="180"/>
      <point x="830" y="522" type="curve" smooth="yes"/>
      <point x="830" y="919"/>
      <point x="681" y="1174"/>
      <point x="430" y="1174" type="curve" smooth="yes"/>
      <point x="332" y="1174"/>
      <point x="238" y="1142"/>
      <point x="150" y="1102" type="curve"/>
      <point x="163" y="1070" type="line"/>
      <point x="256" y="1113"/>
      <point x="351" y="1140"/>
      <point x="430" y="1140" type="curve" smooth="yes"/>
      <point x="644" y="1140"/>
      <point x="767" y="924"/>
      <point x="784" y="608" type="curve"/>
      <point x="359" y="608"/>
      <point x="156" y="436"/>
      <point x="156" y="210" type="curve" smooth="yes"/>
      <point x="156" y="64"/>
      <point x="257" y="-22"/>
    </contour>
    <contour>
      <point x="428" y="12" type="curve" smooth="yes"/>
      <point x="285" y="12"/>
      <point x="200" y="85"/>
      <point x="200" y="209" type="curve" smooth="yes"/>
      <point x="200" y="438"/>
      <point x="420" y="574"/>
      <point x="787" y="574" type="curve"/>
      <point x="788" y="556"/>
      <point x="789" y="493"/>
      <point x="789" y="522" type="curve"/>
      <point x="789" y="208"/>
      <point x="653" y="12"/>
    </contour>
  </outline>
</glyph>
<glyph name="uni2206" format="1">
  <advance width="1281"/>
  <unicode hex="2206"/>
  <outline>
    <contour>
      <point x="230" y="50" type="line"/>
      <point x="634" y="1125" type="line"/>
      <point x="1032" y="50" type="line"/>
    </contour>
    <contour>
      <point x="175" y="0" type="line"/>
      <point x="1106" y="0" type="line"/>
      <point x="673" y="1152" type="line"/>
      <point x="615" y="1152" type="line"/>
    </contour>
  </outline>
</glyph>
<glyph name="caron.alt" format="1">
  <advance width="418"/>
  <outline>
    <contour>
      <point x="209" y="804" type="move" name="_caron.alt"/>
    </contour>
    <contour>
      <point x="362" y="912" type="line"/>
      <point x="453" y="911"/>
      <point x="464" y="960"/>
      <point x="464" y="1074" type="curve" smooth="yes"/>
      <point x="464" y="1152" type="line"/>
      <point x="401" y="1152" type="line"/>
      <point x="401" y="1057" type="line"/>
      <point x="436" y="1057" type="line"/>
      <point x="436" y="972"/>
      <point x="436" y="931"/>
      <point x="362" y="929" type="curve"/>
    </contour>
  </outline>
</glyph>
<glyph name="lc_descender_stem" format="1">
  <advance width="1192"/>
  <outline>
    <contour>
      <point x="93" y="-334" type="line"/>
      <point x="441" y="-334" type="line"/>
      <point x="441" y="-300" type="line"/>
      <point x="287" y="-300" type="line"/>
      <point x="288" y="682" type="line"/>
      <point x="287" y="804" type="line"/>
      <point x="119" y="804" type="line"/>
      <point x="119" y="770" type="line"/>
      <point x="243" y="770" type="line"/>
      <point x="243" y="-300" type="line"/>
      <point x="93" y="-300" type="line"/>
    </contour>
  </outline>
</glyph>
<glyph name="uc_main_stem" format="1">
  <advance width="626"/>
  <outline>
    <contour>
      <point x="135" y="0" type="line"/>
      <point x="491" y="0" type="line"/>
      <point x="491" y="34" type="line"/>
      <point x="334" y="34" type="line"/>
      <point x="334" y="1118" type="line"/>
      <point x="491" y="1118" type="line"/>
      <point x="491" y="1152" type="line"/>
      <point x="135" y="1152" type="line"/>
      <point x="135" y="1118" type="line"/>
      <point x="290" y="1118" type="line"/>
      <point x="290" y="34" type="line"/>
      <point x="135" y="34" type="line"/>
    </contour>
  </outline>
</glyph>
